# xmcd
#
# Track frame offsets: 
#        150
#        15997
#        33102
#        45275
#        62386
#        76633
#        89988
#        112191
#        125054
#        138599
#        153876
#        181208
#        199335
#        211992
#        228706
#        254438
#        265534
#        277992
#
# Disc length: 3888 seconds
#
# Revision: 2
# Processed by: cddbd v1.5.2PL0 Copyright (c) Steve Scherf et al.
# Submitted via: ExactAudioCopy v0.95b4
#
DISCID=f10f2e12
DTITLE=Various Artist - Strange Country
DYEAR=2006
DGENRE=Country
TTITLE0=Calexico - Ballad Of Cable Hogue
TTITLE1=The Handsome Family - So Much Wine
TTITLE2=Porter Wagoner - The Rubber Room
TTITLE3=Gram Rabbit - Dirty Horse
TTITLE4=Isobel Campbell and Mark Lanegan  - Black Mountain
TTITLE5=Micah P. Hinsom - Beneath The Rose
TTITLE6=Gene Clark - In A Misty Morning
TTITLE7=M. Ward - Outta My Head
TTITLE8=Jolie Holland - Crush In The Ghetto
TTITLE9=Sparklehorse - Spirit Ditch
TTITLE10=Bright Eyes - Train Under Water
TTITLE11=Giant Sand - Shiver
TTITLE12=Johnny Cash - The Long Black Veil (Live Version)
TTITLE13=Grey DeLisle - Bohemian Rhapsody
TTITLE14=Smog - Rock Bottom Riser
TTITLE15=Willie Nelson - Time Of The Preacher
TTITLE16=Puerto Muerto - Muerto Country
TTITLE17=Hank Williams - Ramblin' Man
EXTD=
EXTT0=
EXTT1=
EXTT2=
EXTT3=
EXTT4=
EXTT5=
EXTT6=
EXTT7=
EXTT8=
EXTT9=
EXTT10=
EXTT11=
EXTT12=
EXTT13=
EXTT14=
EXTT15=
EXTT16=
EXTT17=
PLAYORDER=
